<svg xmlns="http://www.w3.org/2000/svg" width="900" height="440" viewBox="0 0 900 440">
<rect width="900" height="440" fill="white"/>
<text x="240" y="30" font-family="Arial" font-size="22" font-weight="bold">Top 10 estados por receita — pedidos entregues</text>
<text x="230" y="90" text-anchor="end" font-family="Arial" font-size="13">ES</text><rect x="240" y="75" width="27.0" height="22" fill="#4472C4"/><text x="275" y="91" font-family="Arial" font-size="12">R$ 268.643</text>
<text x="230" y="124" text-anchor="end" font-family="Arial" font-size="13">GO</text><rect x="240" y="109" width="28.5" height="22" fill="#4472C4"/><text x="276.5" y="125" font-family="Arial" font-size="12">R$ 282.837</text>
<text x="230" y="158" text-anchor="end" font-family="Arial" font-size="13">DF</text><rect x="240" y="143" width="29.8" height="22" fill="#4472C4"/><text x="277.8" y="159" font-family="Arial" font-size="12">R$ 296.498</text>
<text x="230" y="192" text-anchor="end" font-family="Arial" font-size="13">BA</text><rect x="240" y="177" width="49.7" height="22" fill="#4472C4"/><text x="297.7" y="193" font-family="Arial" font-size="12">R$ 493.584</text>
<text x="230" y="226" text-anchor="end" font-family="Arial" font-size="13">SC</text><rect x="240" y="211" width="51.0" height="22" fill="#4472C4"/><text x="299" y="227" font-family="Arial" font-size="12">R$ 507.012</text>
<text x="230" y="260" text-anchor="end" font-family="Arial" font-size="13">PR</text><rect x="240" y="245" width="67.0" height="22" fill="#4472C4"/><text x="315" y="261" font-family="Arial" font-size="12">R$ 666.064</text>
<text x="230" y="294" text-anchor="end" font-family="Arial" font-size="13">RS</text><rect x="240" y="279" width="73.4" height="22" fill="#4472C4"/><text x="321.4" y="295" font-family="Arial" font-size="12">R$ 728.897</text>
<text x="230" y="328" text-anchor="end" font-family="Arial" font-size="13">MG</text><rect x="240" y="313" width="156.2" height="22" fill="#4472C4"/><text x="404.2" y="329" font-family="Arial" font-size="12">R$ 1.552.482</text>
<text x="230" y="362" text-anchor="end" font-family="Arial" font-size="13">RJ</text><rect x="240" y="347" width="177.1" height="22" fill="#4472C4"/><text x="425.1" y="363" font-family="Arial" font-size="12">R$ 1.759.651</text>
<text x="230" y="396" text-anchor="end" font-family="Arial" font-size="13">SP</text><rect x="240" y="381" width="510" height="22" fill="#4472C4"/><text x="758" y="397" font-family="Arial" font-size="12">R$ 5.067.633</text>
</svg>